<svg xmlns="http://www.w3.org/2000/svg" xmlns:xlink="http://www.w3.org/1999/xlink" width="75" zoomAndPan="magnify" viewBox="0 0 56.25 56.249997" height="75" preserveAspectRatio="xMidYMid meet" version="1.0"><defs><g/><clipPath id="a8e15b0eb0"><path d="M 0 0 L 55.511719 0 L 55.511719 55.511719 L 0 55.511719 Z M 0 0 " clip-rule="nonzero"/></clipPath><clipPath id="051f764f82"><path d="M 0 0 L 55.359375 0 L 55.359375 55.359375 L 0 55.359375 Z M 0 0 " clip-rule="nonzero"/></clipPath><clipPath id="ccbb904406"><path d="M 27.679688 0 C 12.394531 0 0 12.394531 0 27.679688 C 0 42.96875 12.394531 55.359375 27.679688 55.359375 C 42.96875 55.359375 55.359375 42.96875 55.359375 27.679688 C 55.359375 12.394531 42.96875 0 27.679688 0 Z M 27.679688 0 " clip-rule="nonzero"/></clipPath></defs><g clip-path="url(#a8e15b0eb0)"><path fill="#ffffff" d="M 0 0 L 55.511719 0 L 55.511719 55.511719 L 0 55.511719 Z M 0 0 " fill-opacity="1" fill-rule="nonzero"/></g><g clip-path="url(#051f764f82)"><g clip-path="url(#ccbb904406)"><path fill="#000000" d="M 0 0 L 55.359375 0 L 55.359375 55.359375 L 0 55.359375 Z M 0 0 " fill-opacity="1" fill-rule="nonzero"/></g></g><g fill="#ffffff" fill-opacity="1"><g transform="translate(7.486186, 29.344744)"><g><path d="M 1.640625 -1.03125 L 1.578125 -2.515625 L 3.578125 -4.65625 L 5.03125 -4.65625 L 3.03125 -2.5 L 2.296875 -1.734375 Z M 0.46875 0 L 0.46875 -4.65625 L 1.765625 -4.65625 L 1.765625 0 Z M 3.59375 0 L 2.078125 -1.921875 L 2.9375 -2.84375 L 5.125 0 Z M 3.59375 0 "/></g></g></g><g fill="#ffffff" fill-opacity="1"><g transform="translate(12.492807, 29.344744)"><g><path d="M 2.75 -3.671875 C 3.03125 -3.671875 3.285156 -3.613281 3.515625 -3.5 C 3.742188 -3.382812 3.921875 -3.207031 4.046875 -2.96875 C 4.179688 -2.738281 4.25 -2.4375 4.25 -2.0625 L 4.25 0 L 2.984375 0 L 2.984375 -1.859375 C 2.984375 -2.117188 2.929688 -2.304688 2.828125 -2.421875 C 2.722656 -2.535156 2.578125 -2.59375 2.390625 -2.59375 C 2.253906 -2.59375 2.128906 -2.5625 2.015625 -2.5 C 1.910156 -2.445312 1.828125 -2.359375 1.765625 -2.234375 C 1.703125 -2.109375 1.671875 -1.945312 1.671875 -1.75 L 1.671875 0 L 0.40625 0 L 0.40625 -3.609375 L 1.609375 -3.609375 L 1.609375 -2.578125 L 1.375 -2.875 C 1.507812 -3.144531 1.695312 -3.34375 1.9375 -3.46875 C 2.175781 -3.601562 2.445312 -3.671875 2.75 -3.671875 Z M 2.75 -3.671875 "/></g></g></g><g fill="#ffffff" fill-opacity="1"><g transform="translate(17.126598, 29.344744)"><g><path d="M 2.21875 0.0625 C 1.820312 0.0625 1.46875 -0.015625 1.15625 -0.171875 C 0.851562 -0.335938 0.613281 -0.5625 0.4375 -0.84375 C 0.269531 -1.125 0.1875 -1.445312 0.1875 -1.8125 C 0.1875 -2.175781 0.269531 -2.492188 0.4375 -2.765625 C 0.613281 -3.046875 0.851562 -3.265625 1.15625 -3.421875 C 1.46875 -3.585938 1.820312 -3.671875 2.21875 -3.671875 C 2.613281 -3.671875 2.960938 -3.585938 3.265625 -3.421875 C 3.578125 -3.265625 3.816406 -3.046875 3.984375 -2.765625 C 4.160156 -2.492188 4.25 -2.175781 4.25 -1.8125 C 4.25 -1.445312 4.160156 -1.125 3.984375 -0.84375 C 3.816406 -0.5625 3.578125 -0.335938 3.265625 -0.171875 C 2.960938 -0.015625 2.613281 0.0625 2.21875 0.0625 Z M 2.21875 -0.9375 C 2.363281 -0.9375 2.492188 -0.96875 2.609375 -1.03125 C 2.722656 -1.101562 2.8125 -1.203125 2.875 -1.328125 C 2.9375 -1.460938 2.96875 -1.625 2.96875 -1.8125 C 2.96875 -1.988281 2.9375 -2.140625 2.875 -2.265625 C 2.8125 -2.398438 2.722656 -2.5 2.609375 -2.5625 C 2.492188 -2.625 2.363281 -2.65625 2.21875 -2.65625 C 2.070312 -2.65625 1.941406 -2.625 1.828125 -2.5625 C 1.710938 -2.5 1.617188 -2.398438 1.546875 -2.265625 C 1.484375 -2.140625 1.453125 -1.988281 1.453125 -1.8125 C 1.453125 -1.625 1.484375 -1.460938 1.546875 -1.328125 C 1.617188 -1.203125 1.710938 -1.101562 1.828125 -1.03125 C 1.941406 -0.96875 2.070312 -0.9375 2.21875 -0.9375 Z M 2.21875 -0.9375 "/></g></g></g><g fill="#ffffff" fill-opacity="1"><g transform="translate(21.56065, 29.344744)"><g><path d="M 1.265625 0 L -0.015625 -3.609375 L 1.171875 -3.609375 L 2.203125 -0.59375 L 1.625 -0.59375 L 2.6875 -3.609375 L 3.765625 -3.609375 L 4.78125 -0.59375 L 4.21875 -0.59375 L 5.265625 -3.609375 L 6.390625 -3.609375 L 5.09375 0 L 3.875 0 L 3.015625 -2.5 L 3.375 -2.5 L 2.484375 0 Z M 1.265625 0 "/></g></g></g><g fill="#ffffff" fill-opacity="1"><g transform="translate(27.925448, 29.344744)"><g/></g></g><g fill="#ffffff" fill-opacity="1"><g transform="translate(29.862847, 29.344744)"><g><path d="M 0.46875 0 L 0.46875 -4.65625 L 1.546875 -4.65625 L 3.484375 -1.484375 L 2.90625 -1.484375 L 4.78125 -4.65625 L 5.875 -4.65625 L 5.890625 0 L 4.671875 0 L 4.65625 -2.8125 L 4.859375 -2.8125 L 3.46875 -0.453125 L 2.875 -0.453125 L 1.4375 -2.8125 L 1.6875 -2.8125 L 1.6875 0 Z M 0.46875 0 "/></g></g></g><g fill="#ffffff" fill-opacity="1"><g transform="translate(36.214328, 29.344744)"><g><path d="M 2.21875 0.0625 C 1.820312 0.0625 1.46875 -0.015625 1.15625 -0.171875 C 0.851562 -0.335938 0.613281 -0.5625 0.4375 -0.84375 C 0.269531 -1.125 0.1875 -1.445312 0.1875 -1.8125 C 0.1875 -2.175781 0.269531 -2.492188 0.4375 -2.765625 C 0.613281 -3.046875 0.851562 -3.265625 1.15625 -3.421875 C 1.46875 -3.585938 1.820312 -3.671875 2.21875 -3.671875 C 2.613281 -3.671875 2.960938 -3.585938 3.265625 -3.421875 C 3.578125 -3.265625 3.816406 -3.046875 3.984375 -2.765625 C 4.160156 -2.492188 4.25 -2.175781 4.25 -1.8125 C 4.25 -1.445312 4.160156 -1.125 3.984375 -0.84375 C 3.816406 -0.5625 3.578125 -0.335938 3.265625 -0.171875 C 2.960938 -0.015625 2.613281 0.0625 2.21875 0.0625 Z M 2.21875 -0.9375 C 2.363281 -0.9375 2.492188 -0.96875 2.609375 -1.03125 C 2.722656 -1.101562 2.8125 -1.203125 2.875 -1.328125 C 2.9375 -1.460938 2.96875 -1.625 2.96875 -1.8125 C 2.96875 -1.988281 2.9375 -2.140625 2.875 -2.265625 C 2.8125 -2.398438 2.722656 -2.5 2.609375 -2.5625 C 2.492188 -2.625 2.363281 -2.65625 2.21875 -2.65625 C 2.070312 -2.65625 1.941406 -2.625 1.828125 -2.5625 C 1.710938 -2.5 1.617188 -2.398438 1.546875 -2.265625 C 1.484375 -2.140625 1.453125 -1.988281 1.453125 -1.8125 C 1.453125 -1.625 1.484375 -1.460938 1.546875 -1.328125 C 1.617188 -1.203125 1.710938 -1.101562 1.828125 -1.03125 C 1.941406 -0.96875 2.070312 -0.9375 2.21875 -0.9375 Z M 2.21875 -0.9375 "/></g></g></g><g fill="#ffffff" fill-opacity="1"><g transform="translate(40.64838, 29.344744)"><g><path d="M 0.40625 0 L 0.40625 -3.609375 L 1.609375 -3.609375 L 1.609375 -2.5625 L 1.4375 -2.859375 C 1.539062 -3.128906 1.710938 -3.332031 1.953125 -3.46875 C 2.191406 -3.601562 2.484375 -3.671875 2.828125 -3.671875 L 2.828125 -2.53125 C 2.765625 -2.539062 2.710938 -2.546875 2.671875 -2.546875 C 2.628906 -2.546875 2.582031 -2.546875 2.53125 -2.546875 C 2.28125 -2.546875 2.070312 -2.472656 1.90625 -2.328125 C 1.75 -2.191406 1.671875 -1.96875 1.671875 -1.65625 L 1.671875 0 Z M 0.40625 0 "/></g></g></g><g fill="#ffffff" fill-opacity="1"><g transform="translate(43.597761, 29.344744)"><g><path d="M 2.296875 0.0625 C 1.867188 0.0625 1.492188 -0.015625 1.171875 -0.171875 C 0.859375 -0.335938 0.613281 -0.5625 0.4375 -0.84375 C 0.269531 -1.125 0.1875 -1.445312 0.1875 -1.8125 C 0.1875 -2.164062 0.269531 -2.484375 0.4375 -2.765625 C 0.601562 -3.046875 0.835938 -3.265625 1.140625 -3.421875 C 1.441406 -3.585938 1.78125 -3.671875 2.15625 -3.671875 C 2.519531 -3.671875 2.847656 -3.597656 3.140625 -3.453125 C 3.429688 -3.304688 3.660156 -3.09375 3.828125 -2.8125 C 4.003906 -2.53125 4.09375 -2.191406 4.09375 -1.796875 C 4.09375 -1.753906 4.085938 -1.703125 4.078125 -1.640625 C 4.078125 -1.585938 4.078125 -1.535156 4.078125 -1.484375 L 1.21875 -1.484375 L 1.21875 -2.15625 L 3.40625 -2.15625 L 2.921875 -1.96875 C 2.921875 -2.125 2.890625 -2.257812 2.828125 -2.375 C 2.765625 -2.5 2.675781 -2.59375 2.5625 -2.65625 C 2.445312 -2.726562 2.316406 -2.765625 2.171875 -2.765625 C 2.015625 -2.765625 1.878906 -2.726562 1.765625 -2.65625 C 1.660156 -2.59375 1.578125 -2.5 1.515625 -2.375 C 1.453125 -2.257812 1.421875 -2.117188 1.421875 -1.953125 L 1.421875 -1.765625 C 1.421875 -1.585938 1.457031 -1.429688 1.53125 -1.296875 C 1.601562 -1.171875 1.707031 -1.070312 1.84375 -1 C 1.976562 -0.9375 2.144531 -0.90625 2.34375 -0.90625 C 2.519531 -0.90625 2.671875 -0.929688 2.796875 -0.984375 C 2.921875 -1.035156 3.046875 -1.113281 3.171875 -1.21875 L 3.828125 -0.53125 C 3.660156 -0.332031 3.445312 -0.179688 3.1875 -0.078125 C 2.9375 0.015625 2.640625 0.0625 2.296875 0.0625 Z M 2.296875 0.0625 "/></g></g></g></svg>