<svg width="1280" height="517" viewBox="0 0 1280 517" fill="none" xmlns="http://www.w3.org/2000/svg">
<path d="M16.7812 24.4421L13.5938 23.4679L13.7399 22.9897L13.7105 22.9807L13.7399 22.9717L13.5938 22.4936L16.7812 21.5193L16.9274 21.9975L20.1149 21.0232L19.9688 20.545L23.1562 19.5707L23.3024 20.0489L24.8962 19.5618L25.0066 19.528L25.091 19.4493L26.3098 18.3126L25.9688 17.9469L28.4062 15.6736L28.7473 16.0393L31.1848 13.766L30.8438 13.4003L33.2812 11.127L33.6223 11.4926L33.6447 11.4717L33.6378 11.5016L34.125 11.6141L33.375 14.8617L32.8878 14.7492L32.1378 17.9968L32.625 18.1093L31.875 21.3569L31.3878 21.2444L31.0128 22.8682L30.9868 22.9807L31.0128 23.0932L31.3878 24.717L31.875 24.6045L32.625 27.8521L32.1378 27.9646L32.8878 31.2122L33.375 31.0997L34.125 34.3473L33.6378 34.4598L33.6447 34.4897L33.6223 34.4688L33.2812 34.8344L30.8438 32.5611L31.1848 32.1955L28.7473 29.9221L28.4062 30.2878L25.9688 28.0145L26.3098 27.6488L25.091 26.5122L25.0066 26.4334L24.8962 26.3997L23.3024 25.9125L23.1562 26.3907L19.9688 25.4164L20.1149 24.9382L16.9274 23.964L16.7812 24.4421Z" stroke="#F9AB40" stroke-dasharray="3 3"/>
<path d="M132.962 111.963L124.453 121.086L120.807 133.016L117.16 121.086L108.652 111.963L120.807 114.77L132.962 111.963Z" fill="#FFF2D9"/>
<path fill-rule="evenodd" clip-rule="evenodd" d="M120.807 112.981L103.486 108.981L115.611 121.981L120.807 138.981L126.003 121.981L138.127 108.981L120.807 112.981ZM120.807 114.314L134.278 111.203L124.848 121.314L120.807 134.536L116.765 121.314L107.335 111.203L120.807 114.314Z" fill="#FFF2D9"/>
<path d="M1146 228C1146 190.445 1175.84 160 1212.64 160" stroke="#FFF2D9" stroke-width="15"/>
<path d="M9.5997 514.858C9.5997 514.858 5.62588 504.722 11.1489 500.088C16.672 495.453 26.1268 500.99 31.6499 496.356C37.173 491.721 33.362 481.449 38.885 476.814C44.4081 472.18 53.8629 477.717 59.386 473.083C64.909 468.448 57.4682 461.221 66.6211 453.541C75.774 445.861 87.5907 444.453 87.5907 444.453" stroke="#F9AB40" stroke-width="3" stroke-linecap="round"/>
<path d="M72.598 246.252L72.5902 246.261L72.5829 246.271C68.134 251.968 59.4681 250.537 57.458 243.473L57.4552 243.463L57.4522 243.454C57.3878 243.258 57.3425 243.04 57.3025 242.812C59.6828 242.2 62.0075 241.024 63.8268 239.467C65.7596 237.814 67.1617 235.695 67.391 233.33L67.3913 233.328C67.5917 231.154 66.593 229.647 65.095 229.045C63.6324 228.458 61.7961 228.775 60.364 229.994L60.3627 229.995C57.2777 232.64 55.0537 236.485 54.7388 240.627C51.8602 240.915 49.186 240.032 47.6835 237.25C46.3473 234.764 46.5577 231.812 47.7515 229.191C48.9447 226.571 51.0895 224.358 53.5047 223.359C54.0766 223.155 54.21 222.586 54.0972 222.184C54.0394 221.979 53.9102 221.77 53.6977 221.635C53.4749 221.493 53.2033 221.461 52.9354 221.548C49.2225 222.626 46.4448 225.783 45.211 229.402C43.9753 233.027 44.2585 237.205 46.7938 240.337L46.7938 240.337L46.7965 240.341C48.7263 242.682 51.7459 243.481 54.839 243.228C55.4807 247.428 58.7649 250.701 62.5959 251.999L62.5979 252C67.31 253.575 71.5918 251.254 74.289 247.621C74.4852 247.363 74.5398 247.062 74.4726 246.783C74.409 246.519 74.2456 246.305 74.0599 246.161C73.7138 245.891 73.0522 245.724 72.598 246.252ZM63.4717 236.172C62.0405 237.843 59.7137 239.338 57.2577 240.133C57.5819 238.1 58.585 236.11 59.7601 234.371C60.7361 233.008 61.9313 231.595 63.4037 231.096L63.4037 231.096L63.4092 231.094C63.6851 230.997 63.8694 231.031 64.0095 231.106C64.1686 231.19 64.3274 231.358 64.4723 231.617C64.7645 232.138 64.9058 232.859 64.9339 233.309C64.9819 234.316 64.2794 235.288 63.4823 236.16L63.4769 236.166L63.4717 236.172Z" fill="#51C4D3" stroke="#51C4D3"/>
<path d="M1230.84 435.123L1277.87 441.261" stroke="#F9AB40" stroke-width="4"/>
<path d="M1249.07 462.032L1255.21 415.008" stroke="#F9AB40" stroke-width="4"/>
<circle cx="1208.5" cy="12.5" r="10.5" fill="white" stroke="#69C9D6" stroke-width="4"/>
</svg>
