<svg xmlns="http://www.w3.org/2000/svg" xmlns:xlink="http://www.w3.org/1999/xlink" width="500" zoomAndPan="magnify" viewBox="0 0 375 374.999991" height="500" preserveAspectRatio="xMidYMid meet" version="1.0"><defs><g/><clipPath id="99179083cd"><path d="M 167.363281 131.402344 L 223.460938 131.402344 L 223.460938 187.5 L 167.363281 187.5 Z M 167.363281 131.402344 " clip-rule="nonzero"/></clipPath><clipPath id="cc924c3503"><path d="M 195.414062 131.402344 C 179.921875 131.402344 167.363281 143.960938 167.363281 159.449219 C 167.363281 174.941406 179.921875 187.5 195.414062 187.5 C 210.902344 187.5 223.460938 174.941406 223.460938 159.449219 C 223.460938 143.960938 210.902344 131.402344 195.414062 131.402344 Z M 195.414062 131.402344 " clip-rule="nonzero"/></clipPath></defs><g clip-path="url(#99179083cd)"><g clip-path="url(#cc924c3503)"><path fill="#000000" d="M 167.363281 131.402344 L 223.460938 131.402344 L 223.460938 187.5 L 167.363281 187.5 Z M 167.363281 131.402344 " fill-opacity="1" fill-rule="nonzero"/></g></g><g fill="#ffffff" fill-opacity="1"><g transform="translate(174.948845, 161.137207)"><g><path d="M 1.671875 -1.046875 L 1.59375 -2.546875 L 3.625 -4.71875 L 5.09375 -4.71875 L 3.078125 -2.53125 L 2.328125 -1.75 Z M 0.46875 0 L 0.46875 -4.71875 L 1.796875 -4.71875 L 1.796875 0 Z M 3.640625 0 L 2.109375 -1.953125 L 2.984375 -2.875 L 5.203125 0 Z M 3.640625 0 "/></g></g></g><g fill="#ffffff" fill-opacity="1"><g transform="translate(180.022221, 161.137207)"><g><path d="M 2.796875 -3.71875 C 3.078125 -3.71875 3.332031 -3.660156 3.5625 -3.546875 C 3.789062 -3.429688 3.972656 -3.253906 4.109375 -3.015625 C 4.242188 -2.773438 4.3125 -2.46875 4.3125 -2.09375 L 4.3125 0 L 3.03125 0 L 3.03125 -1.890625 C 3.03125 -2.148438 2.972656 -2.335938 2.859375 -2.453125 C 2.753906 -2.566406 2.609375 -2.625 2.421875 -2.625 C 2.285156 -2.625 2.160156 -2.59375 2.046875 -2.53125 C 1.941406 -2.476562 1.851562 -2.390625 1.78125 -2.265625 C 1.71875 -2.140625 1.6875 -1.972656 1.6875 -1.765625 L 1.6875 0 L 0.40625 0 L 0.40625 -3.65625 L 1.640625 -3.65625 L 1.640625 -2.625 L 1.390625 -2.921875 C 1.535156 -3.191406 1.726562 -3.390625 1.96875 -3.515625 C 2.207031 -3.648438 2.484375 -3.71875 2.796875 -3.71875 Z M 2.796875 -3.71875 "/></g></g></g><g fill="#ffffff" fill-opacity="1"><g transform="translate(184.717796, 161.137207)"><g><path d="M 2.25 0.0625 C 1.84375 0.0625 1.484375 -0.015625 1.171875 -0.171875 C 0.867188 -0.335938 0.628906 -0.5625 0.453125 -0.84375 C 0.273438 -1.132812 0.1875 -1.46875 0.1875 -1.84375 C 0.1875 -2.207031 0.273438 -2.53125 0.453125 -2.8125 C 0.628906 -3.09375 0.867188 -3.3125 1.171875 -3.46875 C 1.484375 -3.632812 1.84375 -3.71875 2.25 -3.71875 C 2.644531 -3.71875 3 -3.632812 3.3125 -3.46875 C 3.625 -3.3125 3.867188 -3.09375 4.046875 -2.8125 C 4.222656 -2.53125 4.3125 -2.207031 4.3125 -1.84375 C 4.3125 -1.46875 4.222656 -1.132812 4.046875 -0.84375 C 3.867188 -0.5625 3.625 -0.335938 3.3125 -0.171875 C 3 -0.015625 2.644531 0.0625 2.25 0.0625 Z M 2.25 -0.953125 C 2.394531 -0.953125 2.523438 -0.984375 2.640625 -1.046875 C 2.753906 -1.117188 2.84375 -1.222656 2.90625 -1.359375 C 2.976562 -1.492188 3.015625 -1.65625 3.015625 -1.84375 C 3.015625 -2.019531 2.976562 -2.171875 2.90625 -2.296875 C 2.84375 -2.429688 2.753906 -2.53125 2.640625 -2.59375 C 2.523438 -2.664062 2.394531 -2.703125 2.25 -2.703125 C 2.101562 -2.703125 1.972656 -2.664062 1.859375 -2.59375 C 1.742188 -2.53125 1.648438 -2.429688 1.578125 -2.296875 C 1.515625 -2.171875 1.484375 -2.019531 1.484375 -1.84375 C 1.484375 -1.65625 1.515625 -1.492188 1.578125 -1.359375 C 1.648438 -1.222656 1.742188 -1.117188 1.859375 -1.046875 C 1.972656 -0.984375 2.101562 -0.953125 2.25 -0.953125 Z M 2.25 -0.953125 "/></g></g></g><g fill="#ffffff" fill-opacity="1"><g transform="translate(189.210969, 161.137207)"><g><path d="M 1.28125 0 L -0.015625 -3.65625 L 1.1875 -3.65625 L 2.234375 -0.59375 L 1.640625 -0.59375 L 2.71875 -3.65625 L 3.8125 -3.65625 L 4.84375 -0.59375 L 4.28125 -0.59375 L 5.34375 -3.65625 L 6.46875 -3.65625 L 5.171875 0 L 3.921875 0 L 3.046875 -2.53125 L 3.421875 -2.53125 L 2.53125 0 Z M 1.28125 0 "/></g></g></g><g fill="#ffffff" fill-opacity="1"><g transform="translate(195.660631, 161.137207)"><g/></g></g><g fill="#ffffff" fill-opacity="1"><g transform="translate(197.623863, 161.137207)"><g><path d="M 0.46875 0 L 0.46875 -4.71875 L 1.578125 -4.71875 L 3.53125 -1.515625 L 2.953125 -1.515625 L 4.859375 -4.71875 L 5.953125 -4.71875 L 5.96875 0 L 4.734375 0 L 4.71875 -2.859375 L 4.9375 -2.859375 L 3.515625 -0.46875 L 2.921875 -0.46875 L 1.453125 -2.859375 L 1.703125 -2.859375 L 1.703125 0 Z M 0.46875 0 "/></g></g></g><g fill="#ffffff" fill-opacity="1"><g transform="translate(204.06003, 161.137207)"><g><path d="M 2.25 0.0625 C 1.84375 0.0625 1.484375 -0.015625 1.171875 -0.171875 C 0.867188 -0.335938 0.628906 -0.5625 0.453125 -0.84375 C 0.273438 -1.132812 0.1875 -1.46875 0.1875 -1.84375 C 0.1875 -2.207031 0.273438 -2.53125 0.453125 -2.8125 C 0.628906 -3.09375 0.867188 -3.3125 1.171875 -3.46875 C 1.484375 -3.632812 1.84375 -3.71875 2.25 -3.71875 C 2.644531 -3.71875 3 -3.632812 3.3125 -3.46875 C 3.625 -3.3125 3.867188 -3.09375 4.046875 -2.8125 C 4.222656 -2.53125 4.3125 -2.207031 4.3125 -1.84375 C 4.3125 -1.46875 4.222656 -1.132812 4.046875 -0.84375 C 3.867188 -0.5625 3.625 -0.335938 3.3125 -0.171875 C 3 -0.015625 2.644531 0.0625 2.25 0.0625 Z M 2.25 -0.953125 C 2.394531 -0.953125 2.523438 -0.984375 2.640625 -1.046875 C 2.753906 -1.117188 2.84375 -1.222656 2.90625 -1.359375 C 2.976562 -1.492188 3.015625 -1.65625 3.015625 -1.84375 C 3.015625 -2.019531 2.976562 -2.171875 2.90625 -2.296875 C 2.84375 -2.429688 2.753906 -2.53125 2.640625 -2.59375 C 2.523438 -2.664062 2.394531 -2.703125 2.25 -2.703125 C 2.101562 -2.703125 1.972656 -2.664062 1.859375 -2.59375 C 1.742188 -2.53125 1.648438 -2.429688 1.578125 -2.296875 C 1.515625 -2.171875 1.484375 -2.019531 1.484375 -1.84375 C 1.484375 -1.65625 1.515625 -1.492188 1.578125 -1.359375 C 1.648438 -1.222656 1.742188 -1.117188 1.859375 -1.046875 C 1.972656 -0.984375 2.101562 -0.953125 2.25 -0.953125 Z M 2.25 -0.953125 "/></g></g></g><g fill="#ffffff" fill-opacity="1"><g transform="translate(208.553203, 161.137207)"><g><path d="M 0.40625 0 L 0.40625 -3.65625 L 1.640625 -3.65625 L 1.640625 -2.59375 L 1.453125 -2.890625 C 1.554688 -3.171875 1.726562 -3.378906 1.96875 -3.515625 C 2.21875 -3.648438 2.515625 -3.71875 2.859375 -3.71875 L 2.859375 -2.5625 C 2.804688 -2.570312 2.753906 -2.578125 2.703125 -2.578125 C 2.660156 -2.578125 2.617188 -2.578125 2.578125 -2.578125 C 2.316406 -2.578125 2.101562 -2.503906 1.9375 -2.359375 C 1.769531 -2.222656 1.6875 -2 1.6875 -1.6875 L 1.6875 0 Z M 0.40625 0 "/></g></g></g><g fill="#ffffff" fill-opacity="1"><g transform="translate(211.541909, 161.137207)"><g><path d="M 2.328125 0.0625 C 1.898438 0.0625 1.523438 -0.0195312 1.203125 -0.1875 C 0.878906 -0.351562 0.628906 -0.578125 0.453125 -0.859375 C 0.273438 -1.148438 0.1875 -1.476562 0.1875 -1.84375 C 0.1875 -2.195312 0.269531 -2.515625 0.4375 -2.796875 C 0.613281 -3.085938 0.851562 -3.3125 1.15625 -3.46875 C 1.46875 -3.632812 1.8125 -3.71875 2.1875 -3.71875 C 2.550781 -3.71875 2.878906 -3.644531 3.171875 -3.5 C 3.472656 -3.351562 3.710938 -3.140625 3.890625 -2.859375 C 4.066406 -2.578125 4.15625 -2.234375 4.15625 -1.828125 C 4.15625 -1.773438 4.148438 -1.71875 4.140625 -1.65625 C 4.140625 -1.601562 4.132812 -1.550781 4.125 -1.5 L 1.234375 -1.5 L 1.234375 -2.1875 L 3.453125 -2.1875 L 2.96875 -1.984375 C 2.96875 -2.148438 2.9375 -2.296875 2.875 -2.421875 C 2.8125 -2.546875 2.722656 -2.640625 2.609375 -2.703125 C 2.492188 -2.773438 2.359375 -2.8125 2.203125 -2.8125 C 2.046875 -2.8125 1.910156 -2.773438 1.796875 -2.703125 C 1.679688 -2.640625 1.59375 -2.546875 1.53125 -2.421875 C 1.46875 -2.296875 1.4375 -2.148438 1.4375 -1.984375 L 1.4375 -1.78125 C 1.4375 -1.601562 1.472656 -1.445312 1.546875 -1.3125 C 1.617188 -1.1875 1.722656 -1.085938 1.859375 -1.015625 C 2.003906 -0.953125 2.175781 -0.921875 2.375 -0.921875 C 2.550781 -0.921875 2.703125 -0.945312 2.828125 -1 C 2.960938 -1.050781 3.09375 -1.128906 3.21875 -1.234375 L 3.890625 -0.53125 C 3.710938 -0.34375 3.492188 -0.195312 3.234375 -0.09375 C 2.984375 0.0078125 2.679688 0.0625 2.328125 0.0625 Z M 2.328125 0.0625 "/></g></g></g></svg>